<?xml version="1.0" encoding="UTF-8"?>
<!DOCTYPE svg PUBLIC "-//W3C//DTD SVG 1.1//EN" "http://www.w3.org/Graphics/SVG/1.1/DTD/svg11.dtd">
<!-- Creator: CorelDRAW 2021 (64 Bit) -->
<svg xmlns="http://www.w3.org/2000/svg" xml:space="preserve" width="38.6252mm" height="44.8531mm" version="1.1" style="shape-rendering:geometricPrecision; text-rendering:geometricPrecision; image-rendering:optimizeQuality; fill-rule:evenodd; clip-rule:evenodd"
viewBox="0 0 561.27 651.77"
 xmlns:xlink="http://www.w3.org/1999/xlink"
 xmlns:xodm="http://www.corel.com/coreldraw/odm/2003">
 <defs>
  <style type="text/css">
   <![CDATA[
    .fil3 {fill:#FFCC29;fill-rule:nonzero}
    .fil8 {fill:#F8AC92;fill-rule:nonzero}
    .fil4 {fill:#F58634;fill-rule:nonzero}
    .fil0 {fill:#ED3237;fill-rule:nonzero}
    .fil5 {fill:#C75EA3;fill-rule:nonzero}
    .fil7 {fill:#A8CF45;fill-rule:nonzero}
    .fil2 {fill:#51A8B1;fill-rule:nonzero}
    .fil6 {fill:#0098DA;fill-rule:nonzero}
    .fil1 {fill:#3E4095;fill-rule:nonzero}
   ]]>
  </style>
 </defs>
 <g id="Camada_x0020_1">
  <metadata id="CorelCorpID_0Corel-Layer"/>
  <path class="fil0" d="M535.3 535.33c5.94,-5.94 15.57,-5.94 21.51,0 5.94,5.94 5.94,15.57 0,21.51 -23.96,23.96 -51.47,43.93 -81.42,59.35 -29.86,15.37 -62.09,26.12 -95.59,31.71 -8.26,1.39 -16.08,-4.18 -17.48,-12.44 -1.39,-8.26 4.18,-16.09 12.44,-17.48 30.43,-5.07 59.68,-14.83 86.76,-28.76 26.99,-13.89 51.91,-32.02 73.77,-53.89z"/>
  <path class="fil1" d="M308.45 621.49c8.35,0.51 14.71,7.7 14.2,16.05 -0.51,8.35 -7.7,14.71 -16.05,14.2 -39.83,-2.39 -78.51,-12.03 -114.27,-28.11 -35.81,-16.11 -68.68,-38.64 -96.83,-66.78 -23.74,-23.75 -43.54,-50.88 -58.84,-80.36 -15.28,-29.44 -26.08,-61.26 -31.84,-94.4 -1.44,-8.26 4.09,-16.12 12.35,-17.56 8.26,-1.44 16.12,4.09 17.56,12.35 5.21,29.98 15.01,58.82 28.9,85.58 13.87,26.72 31.83,51.33 53.38,72.89 25.62,25.62 55.43,46.07 87.84,60.65 32.45,14.6 67.53,23.34 103.6,25.51z"/>
  <path class="fil2" d="M30.45 333.96c0.21,8.37 -6.41,15.34 -14.79,15.54 -8.37,0.21 -15.34,-6.41 -15.54,-14.79 -1.17,-44.75 6.86,-88.72 23.08,-129.39 16.25,-40.73 40.69,-78.17 72.31,-109.79 54.86,-54.86 125.27,-86.6 198.13,-93.9 72.8,-7.29 148.09,9.86 212.81,52.79 6.96,4.64 8.84,14.05 4.2,21.01 -4.64,6.96 -14.05,8.84 -21,4.2 -58.58,-38.85 -126.87,-54.37 -192.98,-47.75 -66.05,6.62 -129.88,35.41 -179.64,85.17 -28.7,28.7 -50.87,62.65 -65.59,99.54 -14.74,36.96 -22.04,76.85 -20.98,117.37z"/>
  <path class="fil3" d="M495.11 495.14c5.94,-5.94 15.57,-5.94 21.51,0 5.94,5.94 5.94,15.57 0,21.51 -52.59,52.59 -121.53,78.89 -190.46,78.89 -68.93,-0 -137.87,-26.3 -190.46,-78.89 -5.94,-5.94 -5.94,-15.57 0,-21.51 5.94,-5.94 15.57,-5.94 21.51,0 46.66,46.66 107.81,69.98 168.95,69.99 61.14,0 122.3,-23.33 168.95,-69.98z"/>
  <path class="fil4" d="M119.15 445.55c4.2,7.26 1.71,16.55 -5.55,20.75 -7.26,4.2 -16.56,1.71 -20.75,-5.55 -30.43,-52.77 -41.25,-112.5 -33.69,-169.82 7.56,-57.3 33.48,-112.16 76.54,-155.21 2.22,-2.22 5.01,-4.88 8.38,-7.97l0.15 -0.13c3.24,-2.97 6.07,-5.48 8.48,-7.5 6.4,-5.43 16,-4.64 21.43,1.76 5.43,6.4 4.64,16 -1.76,21.43 -3.06,2.58 -5.61,4.8 -7.64,6.66l-0.15 0.14c-1.99,1.83 -4.45,4.21 -7.37,7.13 -38.25,38.25 -61.27,86.93 -67.97,137.73 -6.7,50.79 2.91,103.75 29.91,150.58z"/>
  <path class="fil5" d="M284.72 90.81c-8.24,1.46 -16.1,-4.03 -17.56,-12.27 -1.46,-8.24 4.03,-16.1 12.27,-17.56 43.35,-7.63 87.12,-4.48 127.76,8.34 40.72,12.84 78.39,35.36 109.44,66.41 2.33,2.33 5.07,5.22 8.22,8.66 2.53,2.77 5.15,5.77 7.86,9.01 5.38,6.4 4.55,15.96 -1.85,21.34 -6.4,5.38 -15.96,4.55 -21.34,-1.85 -2.13,-2.54 -4.47,-5.21 -7.02,-8 -1.93,-2.1 -4.39,-4.66 -7.38,-7.65 -27.57,-27.57 -60.98,-47.54 -97.09,-58.93 -36.18,-11.41 -75.01,-14.24 -113.3,-7.5z"/>
  <path class="fil6" d="M448.03 448.06c5.94,-5.94 15.57,-5.94 21.51,0 5.94,5.94 5.94,15.57 0,21.51 -39.15,39.15 -90.44,58.96 -141.88,59.34 -51.41,0.38 -102.98,-18.7 -142.75,-57.32 -5.99,-5.85 -6.1,-15.44 -0.25,-21.43 5.85,-5.99 15.44,-6.1 21.43,-0.25 33.77,32.79 77.6,48.99 121.33,48.67 43.69,-0.32 87.29,-17.19 120.62,-50.52z"/>
  <path class="fil7" d="M163.84 384.24c2.83,7.89 -1.27,16.58 -9.16,19.41 -7.89,2.83 -16.58,-1.27 -19.41,-9.16 -13.2,-36.9 -15.17,-75.98 -6.91,-112.77 8.26,-36.78 26.73,-71.24 54.41,-98.92 18.79,-18.79 40.99,-33.54 65.21,-43.66 24.14,-10.09 50.22,-15.51 76.84,-15.68 8.38,-0.07 15.22,6.67 15.29,15.04 0.07,8.38 -6.67,15.22 -15.04,15.29 -22.7,0.15 -44.9,4.75 -65.42,13.33 -20.44,8.54 -39.29,21.11 -55.38,37.19 -23.6,23.6 -39.33,52.91 -46.35,84.13 -7.01,31.22 -5.33,64.41 5.9,95.79z"/>
  <path class="fil8" d="M366.28 158.53c-8.14,-1.97 -13.15,-10.18 -11.17,-18.32 1.97,-8.14 10.18,-13.15 18.32,-11.17 18.19,4.36 35.61,11.19 51.78,20.25 16.22,9.08 31.16,20.34 44.34,33.52 8.42,8.42 16.09,17.58 22.9,27.36 6.81,9.77 12.77,20.15 17.79,31.04 3.53,7.61 0.22,16.64 -7.39,20.17 -7.61,3.53 -16.64,0.22 -20.17,-7.39 -4.25,-9.21 -9.31,-18.02 -15.11,-26.33 -5.78,-8.3 -12.32,-16.11 -19.54,-23.33 -11.3,-11.3 -24,-20.9 -37.7,-28.57 -13.75,-7.7 -28.57,-13.51 -44.05,-17.22z"/>
 </g>
</svg>
